<?xml version="1.0" encoding="UTF-8"?>
<svg viewBox="0 0 306.39124 241.50838" xmlns="http://www.w3.org/2000/svg">
 <g transform="translate(-169.5 -112.71)">
  <g transform="matrix(1.2162 -.13098 0 1.2162 -1738.1 -420.27)" stroke="#000">
   <path transform="translate(6.404 -900.16)" d="m1643.1 1544.2 12.718 2.0624 26.468 1.7187 50.186-0.3438 32.312-1.3749-0.6875-13.062-33.686 1.7187h-43.998l-25.437-0.6875-17.531-1.7187z" fill="none"/>
   <path transform="translate(6.404 -900.16)" d="m1643.4 1531.8 46.405-8.2498 28.186 1.0313 46.405 7.9059" fill="none"/>
   <path transform="translate(6.404 -900.16)" d="m1648.2 1545.2 0.6875 3.4374 14.093 2.4061 21.999 1.375h29.905l19.249-1.375 25.78-1.7187-0.6874-3.0936" fill="none"/>
   <path transform="matrix(.9905 -.13755 .13755 .9905 -207.46 -674.6)" d="m1598.4 1659.7c0 9.1124-3.6935 16.499-8.2497 16.499s-8.2498-7.387-8.2498-16.499 3.6936-16.5 8.2498-16.5 8.2497 7.3871 8.2497 16.5z" fill="none" stroke-width=".802"/>
   <path transform="matrix(1.4267 -.19812 .19812 1.4267 -1000.4 -1303.1)" d="m1598.4 1659.7c0 9.1124-3.6935 16.499-8.2497 16.499s-8.2498-7.387-8.2498-16.499 3.6936-16.5 8.2498-16.5 8.2497 7.3871 8.2497 16.5z" fill="none" stroke-width=".802"/>
   <path transform="translate(6.404 -900.16)" d="m1596.3 1627.7-1.375-38.499 1.7187-2.4062h3.0936v35.405l0.3438 4.4686z" fill="none"/>
   <path transform="translate(6.404 -900.16)" d="m1587.4 1624.7-11-25.78h-2.4061l-2.0625-4.1249-1.3749 0.3438 1.7187 5.4998 13.406 25.78z" fill="none"/>
   <path transform="translate(6.404 -900.16)" d="m1579.3 1635.7-6.3807-2.7499-7.5622-3.7811-1.0312 6.1873-1.7187 4.4686 6.8748 6.531 8.6958 1.3446" fill="none"/>
   <path transform="translate(6.404 -900.16)" d="m1581.5 1662-6.1013 15.597 2.0624 5.8436 0.3438 6.1873 5.4998 6.8748h7.5622l3.0937-2.0625" fill="none"/>
   <path transform="translate(6.404 -900.16)" d="m1594 1673.6-1.375 10.656 3.0078 17.015 6.1873 3.7811 2.7499 4.8124 13.75-1.0313-1.3749-20.968-0.3438-0.3437" fill="none"/>
   <path transform="translate(6.404 -900.16)" d="m1603.2 1672.8 16.5 17.187 9.6247-3.0936 3.7811-8.2498 5.1561-5.4998-20.281-21.312-7.906 2.0625-0.3437 9.9684z" fill="none"/>
   <path transform="translate(6.404 -900.16)" d="m1607.3 1653.9 11.687-7.5623 1.7187-9.9684 1.7187-8.9372 3.4374-8.9372-17.531 13.062-2.4062 9.6246 0.3438 6.8748z" fill="none"/>
   <path transform="translate(6.404 -900.16)" d="m1600 1624.9 4.5546 2.8358 3.4374 5.8436" fill="none"/>
   <path transform="translate(6.404 -900.16)" d="m1587.6 1624.1 4.5546-0.8594 3.9529 1.0313" fill="none"/>
   <path transform="translate(6.404 -900.16)" d="m1613.9 1649.4 0.086 3.6952" fill="none"/>
   <path transform="translate(6.404 -900.16)" d="m1671.9 1603.6 26.898 39.96 106.56-13.062 7.906-26.468-8.9372-16.5-17.874-11-94.872 10.656z" fill="none"/>
   <path transform="translate(6.404 -900.16)" d="m1699.3 1643.4 13.922-25.952 100.37-13.406" fill="none"/>
   <path transform="translate(6.404 -900.16)" d="m1713.1 1617.4-9.5387-17.531-11.687-12.031" fill="none"/>
   <path transform="translate(6.404 -900.16)" d="m1671.9 1603.6-2.75 4.5545 1.375 12.718 21.656 30.249 5.4998-2.4062 1.7187-5.1561" fill="none"/>
   <path transform="translate(6.404 -900.16)" d="m1697.9 1648.7 99.856-11.343 7.2185-6.531" fill="none"/>
   <path transform="translate(6.404 -900.16)" d="m1665.6 1551.4 0.5156 5.8435 7.5622 5.1561 14.437 5.1561 12.375 1.3749 13.406 1.375s8.9372-0.3437 10.312-0.3437c1.375 0 12.031-1.375 12.031-1.375l4.8123-2.4062 2.0624-15.812" fill="none"/>
   <path transform="translate(6.404 -900.16)" d="m1622.1 1629.1 5.8435 6.1873 3.7811 7.5622 0.3438 8.2498-1.0312 7.5622-2.0625 4.4686" fill="none"/>
   <path transform="translate(6.404 -900.16)" d="m1600.1 1610.2 9.6247 7.906 7.5622 6.1873" fill="none"/>
   <path transform="translate(6.404 -900.16)" d="m1582.5 1629.3-4.7049-6.3162 0.6875-6.1873 1.1171-2.1484" fill="none"/>
   <path transform="translate(6.404 -900.16)" d="m1582.7 1612.6 3.6951-3.7811 1.375-5.4998 3.4374-2.7499h3.7811" fill="none"/>
   <path transform="translate(6.404 -900.16)" d="m1600 1599.2 16.585-0.1718" fill="none"/>
   <path transform="translate(6.404 -900.16)" d="m1637.3988,1674.1516c0,0 2.9641,4.4232 3.953,6.8747 .7069,1.7525.9902,3.6497 1.375,5.4998 .4258,2.0471.8587,4.1035 1.0312,6.1873 .189,2.2838.505,4.6395 0,6.8748-.5873,2.5995-.7229,4.7668-2.5781,7.2185-.8566,1.1322-1.9031,2.2164-4.2967,3.4374-1.7441.8897-3.542,2.0389-5.4998,2.0624-2.79.034-5.6653-1.0873-7.906-2.7499-1.2515-.9287-1.8131-2.5357-2.7499-3.7811-.7853-1.044-2.4062-3.0936-2.4062-3.0936" fill="none"/>
   <path transform="translate(6.404 -900.16)" d="m1692.2 1651.2-12.718 9.5387-15.468 7.2186v0.3437" fill="none"/>
   <path transform="translate(6.404 -900.16)" d="m1738.2861,1646.6525c-2.6136.1484-5.6021,1.0344-7.2185,3.0936-.8607,1.0965-.9955,2.7654-.6875,4.1249s1.6041,2.2916 2.4062,3.4374c1.6041,2.2916 3.482,4.4141 4.8123,6.8747 .8803,1.6284 1.5029,3.3916 2.0625,5.1561 .7478,2.3577 1.375,5.8436 1.7187,7.2185 .3438,1.375 1.0553,4.0966 1.0312,6.1873-.028,2.4493-.776,4.8434-1.375,7.2185-.5583,2.2137-3.1769,4.5386-2.0624,6.5311 2.0755,3.7108 12.3746,3.0936 12.3746,3.0936s1.2412-5.2517 1.7187-7.906c.4303-2.3922.8589-4.794 1.0312-7.2185 .1706-2.4001 0-5.8436 0-7.2185 0-1.375-.7241-7.1982-1.7187-10.6559-.8942-3.1087-2.3557-6.0335-3.7811-8.9372-.9269-1.8882-1.8933-3.7725-3.0937-5.4998-1.1135-1.6023-2.149-3.3993-3.7811-4.4686-1.0006-.6556-2.2431-1.099-3.4374-1.0312z" fill="none"/>
   <path transform="translate(6.404 -900.16)" d="m1767.8476,1646.9962c-.4344-.7028-.6649-1.6399-1.3749-2.0624-2.2147-1.7199-5.666-1.5508-7.5623-1.0312-1.856.5798-3.3807,2.3284-4.1248,4.1248-.3946.9527 0,2.0625 0,3.0937 1.4263,4.667 3.2027,5.5618 4.8123,8.2497 .741,1.3371.8279,2.9535 1.0312,4.4686 .3813,2.8413.3438,7.2185.3438,8.5935 0,1.3749-.1333,6.4192 0,9.6246 .1147,2.7571-1.4408,6.4933.6874,8.2498 3.2888,2.7143 9.8137,1.7468 12.7184-1.375 2.1868-2.3502.3437-6.4144.3437-9.6247s-.1341-6.4213-.3437-9.6247c-.1578-2.4119-.2453-4.8422-.6875-7.2185-.5442-2.9244-1.3786-5.8019-2.4062-8.5934-.5667-1.5395-1.311-3.0103-2.0624-4.4686-.4231-.8212-.8893-1.6204-1.375-2.4062z" fill="none"/>
   <path transform="translate(6.404 -900.16)" d="m1774.7224,1646.9962c1.1863,2.3053 4.2351,3.2366 5.4998,5.4998 1.2065,2.1592 1.7187,4.7451 1.7187,7.2185s-1.4687,4.7577-1.7187,7.2185c-.3708,3.6496-.8915,7.5456.3438,10.9997 .6328,1.7695 1.5659,4.2975 3.4373,4.4686 4.6054.4209 10.7564-4.6778 10.3122-9.281-.1283-1.33-2.9872-.8043-3.4374-2.0624-.5739-1.6037 1.3404-3.1515 1.7187-4.8123 .4862-2.1344.5122-4.3491.6875-6.5311 .1655-2.059.6179-4.14.3437-6.1873-.2886-2.1548-.9638-4.3113-2.0624-6.1873-.8608-1.4698-2.436-2.4032-3.4374-3.7811-1.7102-.9938-4.1607-2.1699-5.8436-2.0624-1.4895.1146-3.0954-.2447-4.4686.3437-1.4169.6071-2.9284,1.6386-3.4373,3.0937-.2301.6579.025,1.4427.3437,2.0624z" fill="none"/>
   <path transform="translate(6.404 -900.16)" d="m1719.7242,1657.6521c-.7926-1.1523-2.0923-2.0229-3.4374-2.4062-1.9865-.5661-4.2044-.2349-6.1873.3438-2.0192.5893-2.6204,1.4991-3.4374,3.4373-.6909,1.6391-1.0311,3.0672-.6874,4.8124 .6921,3.5139.9759,7.0968 1.3749,10.6559 .2693,2.402-.6874,5.8435.6875,7.2185 1.375,1.375.4955,3.8197 1.7187,5.1561 1.9402,2.1198 5.2753,2.2809 7.906,3.4374 2.0661.9083 3.9857,3.2468 6.1873,2.7499 4.1218-.9303 9.0316-5.4722 8.2497-9.6247-.3604-1.9142-3.3859-1.9371-5.1561-2.7499-2.0111-.9233-4.64-.8242-6.1873-2.4062-.9378-.9587-1.1753-2.4549-1.3749-3.7811-.3415-2.2689.1776-4.5864.3437-6.8748 .175-2.4107.8686-4.8082.6875-7.2185-.071-.9422-.152-1.9714-.6875-2.7499z" fill="none"/>
   <path transform="translate(6.404 -900.16)" d="m1652.9 1695.4 15.296-3.6952 18.562-5.4998 13.406 6.1873 13.75-1.375 5.4998-0.3437 78.029-14.093 1.375-12.718-2.4062-10.312-2.0624-0.3437" fill="none"/>
   <path transform="translate(6.404 -900.16)" d="m1623.8211,1607.1225 3.0937-5.1561 5.4998-3.0936 6.531-.6875 4.4686,1.375 .6875,1.3749-2.0624,4.1249-3.4374,3.0936 .6875,1.375 1.7187,3.7811-1.7187.3438-2.0624-2.75-1.375-2.0624-6.8748.6875h-3.0936z" fill="none"/>
   <path transform="translate(6.404 -900.16)" d="m1642.4 1598.9-5.156-7.906-5.8436-2.4062-6.531 1.7187-5.1561 3.7812-2.4062 3.7811-1.3749 2.7499 4.4686 4.8123 2.7499 3.4374 0.6874-0.6875" fill="none"/>
   <path transform="matrix(.93109 .36479 -.36479 .93109 707.74 -1416.7)" d="m1722.8 1601.1c0 2.5628-2.7701 4.6404-6.1873 4.6404s-6.1873-2.0776-6.1873-4.6404 2.7702-4.6405 6.1873-4.6405 6.1873 2.0776 6.1873 4.6405z" stroke-width=".802"/>
   <path transform="matrix(.93109 .36479 -.36479 .93109 732.84 -1420)" d="m1722.8 1601.1c0 2.5628-2.7701 4.6404-6.1873 4.6404s-6.1873-2.0776-6.1873-4.6404 2.7702-4.6405 6.1873-4.6405 6.1873 2.0776 6.1873 4.6405z" stroke-width=".802"/>
   <path transform="matrix(.93109 .36479 -.36479 .93109 756.55 -1422.4)" d="m1722.8 1601.1c0 2.5628-2.7701 4.6404-6.1873 4.6404s-6.1873-2.0776-6.1873-4.6404 2.7702-4.6405 6.1873-4.6405 6.1873 2.0776 6.1873 4.6405z" stroke-width=".802"/>
   <path transform="matrix(.93109 .36479 -.36479 .93109 779.24 -1425.5)" d="m1722.8 1601.1c0 2.5628-2.7701 4.6404-6.1873 4.6404s-6.1873-2.0776-6.1873-4.6404 2.7702-4.6405 6.1873-4.6405 6.1873 2.0776 6.1873 4.6405z" stroke-width=".802"/>
   <path transform="matrix(1.1309 .44308 -.44308 1.1309 502.8 -1889.2)" d="m1722.8 1601.1c0 2.5628-2.7701 4.6404-6.1873 4.6404s-6.1873-2.0776-6.1873-4.6404 2.7702-4.6405 6.1873-4.6405 6.1873 2.0776 6.1873 4.6405z" fill="#e6e6e6" stroke-width=".802"/>
   <path transform="matrix(1.1309 .44308 -.44308 1.1309 499.02 -1879.5)" d="m1722.8 1601c0 2.5628-2.7443 4.7063-6.1615 4.7063s-6.0182-1.8399-6.0182-4.4027" fill="none" stroke-width=".802"/>
   <path transform="translate(6.404 -900.16)" d="m1721.1 1579.6-3.7812 11" fill="none"/>
   <path transform="translate(6.404 -900.16)" d="m1735.5 1584.8-4.1249 10.312" fill="none"/>
   <path transform="translate(6.404 -900.16)" d="m1741.4 1595.4s2.5687-3.7573 3.4373-5.8435c0.8653-2.0782 2.2421-4.3416 1.7187-6.5311-0.3208-1.3419-1.4779-2.5592-2.7499-3.0936-8.6725-3.6432-18.837 0.3417-28.186 1.3749-6.0102 0.6642-11.984 1.7266-17.874 3.0937-4.7681 1.1066-9.3626 2.8677-14.093 4.1248-5.2375 1.3918-10.43 3.1466-15.812 3.7812-4.5517 0.5367-9.3199 1.1764-13.75 0-4.4641-1.1855-8.0762-4.4885-12.031-6.8748-3.8373-2.3155-7.6508-4.6786-11.343-7.2185-3.644-2.5065-6.5364-6.2962-10.656-7.906-3.0053-1.1744-6.7316-2.4597-9.6247-1.0312-2.7663 1.3659-4.6495 4.8252-4.8123 7.906-0.2407 4.5553 3.356 8.5509 5.8436 12.375 1.8163 2.7919 6.531 7.5622 6.531 7.5622" fill="none" stroke-width="2.8"/>
   <path transform="translate(6.404 -900.16)" d="m1715.9431,1599.2165c-2.7342-2.896-5.7293-5.5456-8.9372-7.906-2.3819-1.7526-4.8801-3.3458-7.2185-5.156-2.1728-1.6819-4.2723-3.5874-6.8748-4.4686-1.762-.5966-3.6714-.6841-5.5139-.4279s-3.6251.8468-5.3363,1.5762c-3.4226,1.4587-6.6015,3.4797-10.1178,4.6952-4.5021,1.5562-9.4431,1.72-14.0933.6875-3.9785-.8833-7.7181-2.6068-11.3434-4.4686-4.0794-2.095-8.0761-4.3917-11.6871-7.2185-2.5043-1.9605-4.8107-4.1663-7.3452-6.0876s-5.3533-3.5756-8.4668-4.2246c-1.7511-.365-3.5925-.3998-5.3138.087s-3.3145,1.5212-4.3109,3.0067c-.7384,1.1009-1.1308,2.4162-1.2093,3.7395s.1488,2.6546.5733,3.9105c.8491,2.5116 2.4534,4.6883 4.0734,6.787 2.5373,3.2871 5.1742,6.4973 7.906,9.6247" fill="none" stroke-width="2.7"/>
   <path transform="translate(6.404 -900.16)" d="m1765.4415,1593.0292c1.165-1.9396 2.0909-4.0228 2.7499-6.1873 .4754-1.5614.8103-3.2483.3437-4.8123-.3106-1.0411-.9659-1.9619-1.7861-2.6743s-1.8006-1.2245-2.8243-1.5882c-2.0475-.7273-4.2474-.8714-6.3892-1.2373-3.5908-.6135-7.0542-1.8602-10.6559-2.4062-4.8868-.7409-9.8651-.1716-14.7808.3438-7.3912.7749-14.8426,1.4343-21.9993,3.4373-3.8388,1.0744-7.5596,2.5267-11.3433,3.7812-4.3827,1.4531-8.8574,2.6424-13.4058,3.4374-6.9127,1.2083-13.9977,1.4991-20.9681.6874-5.5122-.6419-11.0252-2.0046-15.812-4.8123-5.2088-3.0552-9.3087-7.6592-14.0933-11.3434-5.1048-3.9308-10.9977-6.8036-17.1869-8.5935-1.657-.4792-3.3677-.8852-5.0893-.7781-.8608.054-1.7179.2377-2.5044.5915s-1.5011.8811-2.031,1.5616c-.7064.9072-1.0612,2.0621-1.0892,3.2116s.2583,2.2933.7298,3.342c.9429,2.0974 2.5816,3.7868 4.1406,5.4773 4.7137,5.1114 8.9752,10.6398 12.7183,16.4994" fill="none" stroke-width="2.4"/>
   <path transform="translate(6.404 -900.16)" d="m1787.4 1590.6c1.2585-2.7997 1.2585-6.1375 0-8.9372-1.0013-2.2275-2.7393-4.0717-4.7466-5.4628s-4.2813-2.3542-6.5968-3.1307c-6.7349-2.2584-13.878-2.9946-20.968-3.4374-5.4924-0.343-10.999-0.5189-16.5-0.3437-6.8337 0.2177-13.676 0.9828-20.28 2.7499-5.5674 1.4895-10.929 3.6795-16.5 5.1561-3.281 0.8696-6.6229 1.4886-9.9684 2.0624-7.1587 1.2278-14.395 2.2558-21.656 2.0624-4.3981-0.1171-8.7857-0.6842-13.062-1.7187-5.0667-1.2257-9.9934-3.118-14.437-5.8435-4.0337-2.4742-7.6494-5.6268-10.656-9.281-1.4765-1.7945-2.8109-3.7129-4.4371-5.373s-3.603-3.0765-5.8751-3.5642c-1.0685-0.2294-2.1854-0.2463-3.2544-0.019s-2.0885 0.7003-2.9329 1.3942c-1.3903 1.1425-2.2544 2.8437-2.5959 4.6104s-0.192 3.5995 0.1898 5.358c1.3945 6.4234 5.7349 11.782 10.312 16.5 1.7777 1.8322 3.6122 3.6093 5.4998 5.328" fill="none" stroke-width="2.4"/>
   <path transform="translate(6.404 -900.16)" d="m1665.8432,1555.3039-14.523.9453-6.1873,3.7811-3.7811,5.8436-.3437,5.4998 3.0936,19.2494c-1.9398.2196-3.8914.3344-5.8435.3437h-.5156" fill="none"/>
   <path transform="translate(6.404 -900.16)" d="m1665.7573,1557.6242-4.4686,4.1248 6.8747,2.7499c2.0597.3596 4.1223.7034 6.1873,1.0312 2.2886.3633 4.5803.7071 6.8748,1.0313l2.0624,2.7499-.6875,5.8435c-5.5114.4533-11.0129,1.0264-16.4994,1.7187-2.5241.3185-5.0451.6623-7.5623,1.0312l-.6874.6875" fill="none"/>
   <path transform="translate(6.404 -900.16)" d="m1656.5 1562.1-6.8748 3.0936-0.6874 4.8124 1.0312 5.4998 1.0312 2.0624" fill="none"/>
   <path transform="translate(6.404 -900.16)" d="m1666.1 1565.5-2.0624 4.1249 1.3749 4.8124 1.375 3.0936" fill="none"/>
   <path transform="translate(6.404 -900.16)" d="m1651.3 1561.1-5.8435 3.4374-1.0312 5.8436 0.6874 2.7499 0.6875 1.7187" fill="none"/>
   <path transform="translate(6.404 -900.16)" d="m1740.7 1566.9c6.7662 1.8111 13.526 3.6444 20.281 5.4998 2.4132 0.6629 4.8259 1.3288 7.2185 2.0625 3.0146 0.9245 5.9962 1.9566 8.9372 3.0936" fill="none"/>
   <path transform="translate(6.404 -900.16)" d="m1631.3834,1665.3862 9.2809.1719 7.2615,11.5368c2.6624,4.2937 4.3094,9.2125 4.7694,14.2436 .293,3.2042.1108,6.4394-.3438,9.6247-.2886,2.0225-.702,4.0715-1.7187,5.8435-1.2307,2.1451-3.2737,3.735-5.4998,4.8123-4.3498,2.1051-9.5591,2.3592-14.0932.6875" fill="none"/>
   <path transform="translate(6.404 -900.16)" d="m1656.5 1668.7-9.9684-13.75 2.0624-1.0312h11.687l0.6875-3.0937 0.6875-25.78-1.7187-2.7499h-13.406l-3.7811 2.4062-3.4374-2.4062 0.6875-4.4686-6.1873-7.2185-17.187 0.6875-0.3437 12.375" fill="none"/>
   <path transform="translate(6.404 -900.16)" d="m1646.9 1655.2-4.8123-3.0936-1.7187 2.7499-1.0312 2.4062-0.3438 2.4061 0.6875 3.0937" fill="none"/>
   <path transform="translate(6.404 -900.16)" d="m1624.7 1622.6 7.0466 9.9684 5.4999 4.4686 5.4998 2.7499 4.8123 1.3749h3.0937" fill="none"/>
   <path transform="translate(6.404 -900.16)" d="m1642.7 1624.6 2.75 4.8983 7.2185 1.0312-0.3437 4.8124-0.3438 2.0624" fill="none"/>
   <path transform="matrix(1.006 .24161 -.09848 .97037 165.6 -1241.8)" d="m1633.1 1695.6c0 1.5438-1.2514 2.7952-2.7952 2.7952s-2.7952-1.2514-2.7952-2.7952 1.2515-2.7952 2.7952-2.7952 2.7952 1.2515 2.7952 2.7952z" fill="none"/>
   <path transform="matrix(1.0926 -.75163 .75163 1.0926 -1413.8 183.97)" d="m1661.6 1677.7c0 1.1746-1.1699 2.1267-2.6129 2.1267s-2.6129-0.9521-2.6129-2.1267 1.1698-2.1268 2.6129-2.1268 2.6129 0.9522 2.6129 2.1268z" stroke-width=".75403"/>
   <path transform="matrix(.86385 -.59424 .59424 .86385 -773.7 275.26)" d="m1661.6 1677.7c0 1.1746-1.1699 2.1267-2.6129 2.1267s-2.6129-0.9521-2.6129-2.1267 1.1698-2.1268 2.6129-2.1268 2.6129 0.9522 2.6129 2.1268z" stroke-width=".75403"/>
   <path transform="translate(6.404 -900.16)" d="m1785.7 1639.3 1.0312 3.953" fill="none"/>
   <path transform="translate(6.404 -900.16)" d="m1644.8 1592.7 8.2497 2.4062 5.4998 1.0312 6.8748 4.4686 3.867 7.3045" fill="none"/>
   <path transform="translate(6.404 -900.16)" d="m1652.4 1615.4 9.2809-6.1872 5.4998-6.1873" fill="none"/>
   <path transform="translate(6.404 -900.16)" d="m1644.8 1607.5 4.4686-8.5935 3.4374-3.7811" fill="none"/>
   <path transform="translate(6.404 -900.16)" d="m1650.6 1672.1-7.2186-8.9372" fill="none"/>
   <path d="m1660.6 765.05 9.6247 2.7499" fill="none"/>
   <path transform="translate(6.404 -900.16)" d="m1709.2 1608.7 99.168-12.639" fill="none"/>
   <path transform="translate(6.404 -900.16)" d="m1711.1 1613.1 99.654-13.125" fill="none"/>
   <path transform="translate(6.404 -900.16)" d="m1725.2427,1597.372c-1.2552-.1317-2.3124-.4405-3.4547-1.0093-2.1678-1.0794-3.5928-2.743-3.8942-4.5464-.1447-.8662-.1662-.777 1.0141-4.2146 .5721-1.666 1.052-3.0423 1.0665-3.0583s.3067-.06.6494-.097l.7519-.089c.1157-.019.142,0 .2574.1831 .2272.3609.7807,1.0192 1.1475,1.3649 1.7512,1.6508 4.0388,2.6355 6.4281,2.767 1.559.086 2.8443-.1652 4.0819-.7971 .3943-.2013.5285-.2531.5131-.1978-.036.1311-2.6146,6.5583-2.6756,6.6702-.032.059-.1078.2108-.1679.3372-.7695,1.6187-2.6055,2.6255-4.9011,2.6878-.3545.01-.7218.01-.8164-.0006z" fill="#e6e6e6" stroke-width=".04297"/>
   <path transform="translate(6.404 -900.16)" d="m1671.8 1534-10.391-0.286-7.7171-0.736c-4.2444-0.4048-7.8717-0.7747-8.0607-0.8219-0.2369-0.059 6.6073-1.317 22.058-4.0535l22.401-3.9675 13.895 0.5217 13.895 0.5218 22.018 3.7496c19.902 3.3894 21.947 3.7584 21.288 3.8408-0.401 0.05-7.2918 0.4201-15.313 0.822l-14.584 0.7309-24.549-0.018c-22.474-0.016-25.427-0.042-34.94-0.3039z" fill="#ececec" stroke-width=".12153"/>
   <path transform="translate(6.404 -900.16)" d="m1668.5943,1546.5024c-10.1826-.6802-19.2855-1.7172-24.1374-2.7497-.7582-.1613-.7618-.1949-.5538-5.2285 .1151-2.7864.2444-5.1099.2873-5.1633s4.0045.2876 8.8036.7578c11.0186,1.0797 28.6702,1.5792 55.8177,1.5797 16.8035.0003 22.6321-.1395 37.0867-.8893 12.8035-.6642 17.2118-.7896 17.3939-.495 .2467.3993.8189,10.988.6053,11.2016-.064.064-7.5341.4224-16.6011.7974-10.9638.4535-24.8902.734-41.5785.8374-23.6017.1464-25.8079.1079-37.1237-.6481z" fill="#ccc" stroke-width=".34374"/>
   <path transform="translate(6.404 -900.16)" d="m1673.5785,1551.1205c-8.418-.549-20.2767-2.0299-23.4594-2.9296-.5878-.1662-1.2112-1.6922-.8421-2.0613 .1026-.1026 1.7841.062 3.7365.3649s9.5825.9315 16.9557,1.3961c13.3405.8406 13.5473.843 42.4517.5037 15.9753-.1875 31.4435-.4811 34.3739-.6525s6.8181-.3231 8.6393-.337c3.0335-.023 3.3265.032 3.4911.6621 .099.3781.092.6875-.015.6875-.5355,0-31.7394,2.1478-37.5525,2.5848-9.7394.7321-34.971.6166-47.7796-.2187z" fill="#999" stroke-width=".34374"/>
   <path transform="translate(6.404 -900.16)" d="m1701.8 1640.1c0.7469-1.3707 3.6384-6.7459 6.4256-11.945s5.2103-9.6074 5.3846-9.7965c0.2602-0.2822 98.24-13.632 98.506-13.421 0.064 0.051-7.1251 24.52-7.2984 24.841-0.037 0.069-103.63 12.814-104.15 12.814-0.1226 0 0.3882-1.1215 1.135-2.4921z" fill="#999" stroke-width=".34374"/>
   <path transform="translate(6.404 -900.16)" d="m1686.1 1623.5c-7.0358-10.454-12.875-19.223-12.977-19.487-0.1214-0.3161 2.9483-3.089 8.9901-8.1211l9.1744-7.6412 5.8681 6.0805 5.8681 6.0804 4.5628 8.3686c2.5095 4.6027 4.5627 8.5166 4.5627 8.6975s-2.9828 5.8865-6.6285 12.679l-6.6286 12.35-12.792-19.007z" fill="#b3b3b3" stroke-width=".34374"/>
   <path transform="translate(6.404 -900.16)" d="m1712.7 1615.2-0.8217-1.4702 1.0873-0.1877c0.5981-0.1033 22.279-2.9679 48.18-6.3658s47.64-6.2651 48.309-6.3713c1.1352-0.1803 1.2571-0.1085 1.8193 1.0704 0.3314 0.695 0.5065 1.3605 0.389 1.4789s-22.247 3.1629-49.177 6.7655l-48.964 6.5503-0.8216-1.4701z" fill="#b3b3b3" stroke-width=".34374"/>
   <path transform="translate(6.404 -900.16)" d="m1710.3 1610.9c-0.5525-0.931-0.721-1.4919-0.4646-1.5463 0.8493-0.1803 97.583-12.461 98.154-12.461 0.7617 0 1.9836 2.3561 1.331 2.5665-0.3829 0.1234-97.383 12.903-97.93 12.902-0.1226-3e-4 -0.613-0.6578-1.0899-1.4613z" fill="#b3b3b3" stroke-width=".34374"/>
   <path transform="translate(6.404 -900.16)" d="m1706.5014,1603.8066c-2.2295-4.1398-2.576-4.5782-8.0372-10.1676l-5.7072-5.8414 1.5468-.2345c3.8133-.5783 4.0616-.503 8.2844,2.5123 3.2465,2.3181 5.7765,4.246 7.6578,5.8352 .1661.1403-.027.6737-.4297,1.1853-1.4285,1.8161-.7282,4.8227 1.599,6.865 3.0083,2.64 8.7392,2.3277 10.2312-.5576 .7479-1.4463.5099-3.6643-.5535-5.1577-.7291-1.0239-.741-1.1-.1317-.8424 4.2467,1.7953 8.7408,1.2376 10.5382-1.3079 .9334-1.3218 4.7405-11.1317 4.7405-12.2149 0-.9759.017-.9837 3.0309-1.3702 3.9587-.5077 4.7061-.4908 5.2111.1176 .7852.9461.4462,2.8233-1.099,6.0852l-1.5191,3.207-1.7473-.1178c-5.0493-.3406-7.6748,4.0543-4.6527,7.7881 3.3569,4.1476 10.8285,3.7998 11.643-.5419 .2979-1.588-.3284-3.5193-1.5076-4.6491l-.9682-.9276 1.4677-2.9977c1.799-3.6745 2.4236-6.1899 1.9335-7.7867l-.3504-1.1417 8.5754-.9458 8.5753-.9457 .8725.804c1.16,1.069 1.8744,2.8244 1.6224,3.9865-.1124.5183-.5206,1.8816-.9072,3.0296l-.7028,2.0873-1.7982-.1492c-5.09-.4221-7.7876,4.0033-4.7375,7.7719 3.3293,4.1134 10.828,3.8027 11.6318-.4819 .3184-1.6969-.145-3.1749-1.4473-4.6163l-1.176-1.3017 .6869-1.7427c1.1345-2.8782 1.457-5.7099.8409-7.3842-.2886-.7846-.6028-1.67-.6982-1.9675-.1479-.4618.6488-.6282 5.4367-1.1354 3.0855-.3268 6.0966-.6776 6.6913-.7795 .8994-.154 1.3168.028 2.4819,1.0802 1.5305,1.3828 2.9692,4.0783 3.257,6.1021 .1832,1.2886.1828,1.289-1.0842,1.2966-1.8863.011-4.0444,1.1215-4.7203,2.4286-1.9078,3.6893 2.0436,8.3585 7.0339,8.3114 1.0998-.01 2.3682-.2092 2.8186-.4419 3.3743-1.7435 3.6032-5.4181.5072-8.1433-1.3634-1.2001-1.5335-1.5289-1.8535-3.5842-.402-2.5821-1.5433-5.4689-2.507-6.341-1.8709-1.6932.1534-.6287 8.0378,4.2265l8.6936,5.3534 1.9664,3.7011 1.9665,3.701-1.2931.2013c-.7113.1107-22.6393,2.9063-48.7291,6.2123s-47.7636,6.0657-48.1641,6.1324c-.618.1031-1.081-.5336-3.0581-4.2049z" fill="#999" stroke-width=".34374"/>
   <path transform="translate(6.404 -900.16)" d="m1681.8263,1635.3826-10.587-14.7891-.6687-6.0405-.6687-6.0405 .9436-1.6799c.5189-.924 1.0208-1.6733 1.1153-1.6651 .095.01 6.0947,8.8304 13.3336,19.605l13.1617,19.5902-.5934,1.8825c-.5518,1.7504-.7193,1.94-2.3903,2.705-.9883.4525-2.081.9124-2.428,1.0221-.5154.1629-2.5732-2.5135-11.2181-14.5897z" fill="#999" stroke-width=".34374"/>
   <path transform="translate(6.404 -900.16)" d="m1699.3984,1646.0159c.3095-.9679.7206-1.8172.9137-1.8875 .4479-.1632 101.1705-12.5086 102.0534-12.5086 .4706,0-.01.6147-1.6794,2.1484-1.2862,1.1816-2.6059,2.3382-2.9326,2.5703-.484.3438-95.7953,11.437-98.2649,11.437-.6297,0-.6329-.063-.09-1.7596z" fill="#999" stroke-width=".34374"/>
   <path transform="translate(6.404 -900.16)" d="m1653.2989,1691.66c-.2577-3.6521-1.3494-7.9418-2.845-11.1788-.6424-1.3903-2.9881-5.4287-5.2128-8.9743l-4.0449-6.4466-4.9783-.2361c-4.3418-.2058-5.0736-.3255-5.7234-.936l-.7452-.7 .968-2.1349c1.3996-3.0868 2.1467-8.9067 1.8465-14.3834l-.2315-4.2223-1.984-3.953c-1.5706-3.1293-2.4253-4.3827-4.1019-6.0154-1.1648-1.1344-2.4168-2.4751-2.7822-2.9794-.6624-.9141-.6616-.9244.2381-3.3518l.9025-2.4349 3.352,4.7268c2.6464,3.7318 3.9219,5.1871 6.0595,6.9139 4.4673,3.6086 11.3417,6.5782 15.2282,6.5782 1.2261,0 1.6756-.2023 2.6793-1.206 1.0489-1.0489 1.1847-1.3734 1.043-2.4921-.09-.7074-.01-2.8006.1778-4.6516s.2745-3.4318.1935-3.5128c-.1189-.1189-6.7147-1.1996-7.3215-1.1996-.1302,0-1.4253-2.2811-2.1654-3.8141-.054-.1126.5265-.6187 1.2909-1.1245l1.3897-.9197 6.5942.093 6.5942.093 .6384,1.0936c.6105,1.0459.6215,1.6568.2509,13.9928-.2131,7.0945-.5026,13.3311-.6435,13.859l-.256.9599-5.9914.1935c-3.2952.1065-6.3148.3114-6.7101.4555-.5356.1952-1.2803-.093-2.9218-1.1329l-2.203-1.395-.5901.7676c-.9671,1.2578-2.5804,4.797-2.8279,6.2037-.1269.7212-.06,2.1355.1495,3.143 .3287,1.5832.4737,4.3853 1.0685,4.2298 .5841-.1528.6466-2.9201.4129-3.8305-.5243-2.0425-.2518-4.1302.8133-6.2299 .5638-1.1115 1.1766-2.0714 1.3616-2.1331 .1851-.062 1.1688.4707 2.186,1.183 1.3838.9691 2.8219,2.633 5.7113,6.6083l3.8618,5.3131-1.2611.4282c-.6936.2355-1.6856.9313-2.2045,1.5464-.5881.6971-1.0615.9945-1.2571.7897-.1726-.1806-1.4699-1.7511-2.8828-3.4899-2.1913-2.6965-4.8844-1.0385-5.3547-.6875-.481.3591 2.1853-1.0185 5.6229,3.3082 2.1669,2.7274 4.1368,5.084 4.3775,5.2367 1.4405.9142 4.91-.1756 5.7893-1.8186 .6517-1.2176.5662-3.2386-.1715-4.0537-.3575-.3951-.5516-.8169-.4311-.9374s1.7307.2154 3.5785.7464 3.7027.9419 4.1222.9133 4.1318-1.6154 8.2497-3.5262c7.2331-3.3562 7.7098-3.6409 14.054-8.3919 4.3472-3.2556 7.4249-5.2944 9.1053-6.0319l2.5383-1.1141 43.4641-4.9396c34.1677-3.8831 43.5229-4.8469 43.7392-4.5061 .6771,1.0666.2965,1.1977-2.9794,1.0263-3.8925-.2036-5.7588.351-7.3747,2.1914-1.9389,2.2084-1.2303,4.3765 2.3674,7.2437 2.3777,1.8949 3.353,3.6188 3.9234,6.9349 .3427,1.9923.2884,2.5149-.6249,6.0154-1.2395,4.7502-1.573,10.6472-.7741,13.6876l.5119,1.9482-2.2345.3891c-1.2289.2141-2.281.3427-2.3378.2858s-.2661-3.4288-.4651-7.4933-.6091-8.7049-.9113-10.3119c-.8492-4.5148-2.7609-9.8531-4.927-13.758-2.3053-4.1559-3.1829-4.8005-6.8972-5.0663-2.7701-.1982-4.4296.2723-6.0839,1.7248-1.6446,1.444-2.1872,2.6522-2.1872,4.8699 0,2.3643 1.089,4.937 3.4219,8.084 .9355,1.2618 1.8727,2.9815 2.0828,3.8215s.4703,5.88.5782,11.2001c.1879,9.268.169,9.6809-.4513,9.8633-.5576.164-4.5275.9163-4.8354.9163-.06,0-.1088-1.4616-.1088-3.2479 0-4.0149-.7877-10.1719-1.7394-13.5952-.9036-3.25-4.5149-11.0949-6.5818-14.2974-3.416-5.2928-5.1649-6.512-8.9525-6.2411-1.6808.1203-2.9175.4548-4.3058,1.1648-2.585,1.3221-3.5134,2.7114-3.5134,5.2578 0,1.9194.033,1.9813 3.3632,6.3942 4.6727,6.1912 5.4379,7.9399 7.4989,17.1375 .9492,4.2362 1.1989,6.0073 1.063,7.5404-.098,1.102-.2686,2.0945-.3796,2.2055-.2495.2495-8.8638,1.8526-9.035,1.6814-.068-.068.035-.5418.2298-1.053 .5153-1.3554.4322-3.3691-.175-4.2358-.3711-.53-1.7259-1.1241-4.5545-1.9974-7.4223-2.2915-7.4636-2.3341-7.4636-7.6975 0-1.9939.2231-5.5289.4958-7.8555 .3974-3.3914.4135-4.5503.081-5.8436-.9661-3.7591-5.3882-5.4554-10.397-3.9881-2.3665.6932-3.5662,1.8295-4.4798,4.2428-.8096,2.1385-.7794,3.9201.1835,10.8504 .2889,2.0796.5283,5.3302.532,7.2236 .01,2.7052.1453,3.7011.654,4.6501 .356.6643.8299,2.0873 1.0531,3.1624 .2993,1.4421.669,2.1761 1.4098,2.7994 .9084.7644 4.2012,2.217 5.2384,2.3109 .2292.021-2.9862.3863-7.1455.8123l-7.5622.7746-6.6286-3.0466c-3.6456-1.6756-6.7943-3.0466-6.997-3.0466s-4.7994,1.3005-10.2147,2.8899-12.5531,3.5341-15.8615,4.3214-6.263,1.5007-6.5655,1.5854c-.4618.1294-.5825-.3071-.7531-2.7235z" fill="#999" stroke-width=".34374"/>
   <path transform="translate(6.404 -900.16)" d="m1659.2548,1665.9467c-2.5382-.723-4.8091-1.5109-5.0465-1.7509s-1.8205-2.3676-3.5178-4.728c-2.0972-2.9163-2.9563-4.3741-2.681-4.5493 .2229-.1417 3.2034-.26 6.6233-.2629l6.2181-.01 .4029-2.3202c.2217-1.2761.5592-7.9899.7501-14.9195l.3471-12.5992-.9527-1.5691-.9527-1.5692-7.1884-.011-7.1884-.011-1.6391,1.0518-1.6391,1.0518-1.4138-.9356c-1.1869-.7854-1.3857-1.0784-1.2386-1.8252 .7106-3.6085.8989-3.0882-2.6028-7.1941-1.7677-2.0726-3.5233-3.8399-3.9014-3.9272-.393-.091-.1534-.1788.5593-.2055 1.165-.044 1.3616.1105 2.9976,2.3528 1.6731,2.293 1.8008,2.3902 2.8781,2.1888 .62-.1159 1.2651-.3359 1.4336-.4888 .1744-.1583-.1854-1.3969-.8355-2.8762l-1.1418-2.5981 1.4531-1.2438c.8805-.7536 1.9307-2.1921 2.6649-3.6501 1.0711-2.1268 1.1654-2.5186.8118-3.3721-.22-.5312-.6174-1.0492-.883-1.1512-.8313-.319-4.9462-6.874-4.4952-7.1608 .2203-.1402 1.6197-.2573 3.1096-.2602l2.7089-.01-.1885-1.162-.1886-1.1621 2.9534,1.8542c3.7836,2.3755 6.5312,3.2496 10.9115,3.4716 6.2733.318 12.9155-.7327 23.3618-3.6952 3.3657-.9546 6.1632-1.6917 6.2165-1.6382s-3.6738,3.2368-8.2827,7.0738c-6.7796,5.6444-8.5582,7.3044-9.3145,8.6941l-.9349,1.7177-1.4805-2.6787c-.8143-1.4732-1.5588-2.9107-1.6545-3.1942s-1.8049-1.5641-3.7982-2.8456c-3.1687-2.0371-3.9791-2.3969-6.4467-2.8623-1.5523-.2927-4.6419-1.0697-6.8657-1.7265s-4.1961-1.0999-4.3827-.9845c-.9489.5865-.091,1.1521 3.098,2.0428 1.8906.528 3.4374,1.0655 3.4374,1.1944s-.5486.7662-1.2191,1.4161c-1.7123,1.6596-6.2382,10.2778-5.6073,10.6775 .257.1628.5547.2984.6615.3013s1.231-1.9669 2.4981-4.3774 2.9817-5.1342 3.8102-6.0528l1.5064-1.6701 2.5266.437c2.1579.3732 3.0367.7658 6.0234,2.6911 2.3536,1.5173 3.6579,2.5945 3.9897,3.295 .4912,1.0371.4843,1.0504-1.95,3.7527-1.7976,1.9954-3.6461,3.5182-6.9975,5.7643-2.505,1.6788-4.5545,3.2092-4.5545,3.4008 0,1.0273 1.4044.4323 5.5566-2.3543 3.4031-2.2839 5.1657-3.7391 6.8436-5.6499l2.2599-2.5738 .883,1.5854c.7529,1.3516.9933,2.5715 1.6306,8.273 .4111,3.6783.8452,6.8492.9647,7.0467s4.9128,6.9166 10.6518,14.9314 10.3099,14.6843 10.1575,14.821-2.9841,2.2587-6.2925,4.7156c-4.5863,3.4058-6.9138,4.8805-9.7966,6.2071-2.0796.957-5.4083,2.501-7.3971,3.431l-3.6159,1.6909-4.6148-1.3146z" fill="#999" stroke-width=".34374"/>
   <path transform="translate(6.404 -900.16)" d="m1668.0078,1579.8595c-3.1547-.3062-7.5987-.9309-8.1977-1.1525-.5643-.2087 4.4006-.9757 6.479-1.0009 .3782,0 1.3836-.1601 2.2343-.3455s4.5063-.6143 8.1234-.953l6.5765-.6156 .3866-3.3998 .3866-3.3997-1.0625-1.3415c-.5844-.7378-.9106-1.3415-.7248-1.3415s1.6295.4599 3.2084,1.022c2.497.889 4.3926,1.1862 14.5579,2.2828 6.4279.6933 13.0019,1.2726 14.6089,1.2871s2.6124.088 2.2343.1623-3.7735,1.1341-7.5454,2.3542c-9.5773,3.0979-14.5278,4.2067-25.0706,5.6155-4.9772.665-13.4174,1.0956-16.1949.8261z" fill="#999" stroke-width=".34374"/>
   <path transform="translate(6.404 -900.16)" d="m1717.3343,1595.5555c-.2836-.162-1.2093-.409-2.0571-.549-1.1526-.1902-2.1501-.7501-3.953-2.219-1.3263-1.0805-3.6948-2.9021-5.2633-4.0481l-2.8518-2.0835 1.305-.1998c3.3068-.5064 13.6174-1.5896 13.7614-1.4456 .089.088-.2594,1.4235-.7733,2.9665-1.0739,3.2247-1.0063,4.5346.3388,6.5672 .8561,1.2936.6627,1.6795-.5067,1.0113z" fill="#999" stroke-width=".34374"/>
   <path transform="translate(6.404 -900.16)" d="m1695.066,1581.0936c-.2364-.1346-.7101-.3521-1.0527-.4833s-.6231-.263-.6231-.2928 .2997-.1018.666-.1599c1.5445-.2449 5.0949-.9954 7.1433-1.5099 2.7776-.6977 3.4804-.9108 9.2058-2.7904 2.5759-.8457 5.3326-1.7331 6.126-1.972 6.8879-2.074 14.5632-3.175 23.3066-3.3431 3.3088-.064 8.9829.012 11.4486.1519l1.6521.094 5.1797,1.4113c7.6276,2.0784 10.4104,2.9027 14.2029,4.2069 1.9955.6862 2.5336.9016 2.2773.9114-.1182,0-1.8232.1906-3.7889.4137l-3.574.4054-.379-.28c-.2084-.154-.7656-.4719-1.2383-.7063-1.3167-.653-2.6388-1.0307-4.8123-1.375-3.7596-.5954-4.5689-.7563-7.6163-1.5142-5.3234-1.324-6.2001-1.4793-9.4747-1.6779-2.881-.1748-5.5637,0-14.2752.915-7.9533.838-11.5415,1.3492-15.683,2.2343-3.0855.6594-5.3185,1.3126-10.1833,2.9786-4.3035,1.4737-7.8569,2.6477-7.9794,2.6362-.054-.01-.2918-.1193-.5281-.2539z" fill="#999" stroke-width=".08593"/>
   <path transform="translate(6.404 -900.16)" d="m1746.2943,1579.9598c-.6454-.6547-1.5604-1.2042-2.6479-1.5901-1.8227-.6468-3.5027-1.0216-5.4842-1.2235-.9811-.1-4.3932-.1032-5.4139-.01-.7239.07-.7358.067-1.3253-.2288-.3272-.1644-.9807-.4252-1.4523-.5795l-.8575-.2805 .3782-.054c.7083-.1019 7.1625-.737 8.37-.8236 3.3039-.2371 5.8588-.1987 8.3357.1251 1.4581.1906 2.3349.3787 5.8435,1.2537 3.4789.8676 4.5031,1.0837 6.66,1.4053 1.8005.2684 3.961.6728 3.7811.7077-.315.061-15.5004,1.744-15.6272,1.7319-.078-.01-.3301-.2047-.5602-.4381z" fill="#999" stroke-width=".08593"/>
   <path transform="translate(6.404 -900.16)" d="m1735.4473,1580.7767-.4376-.8808h.7813c.8565,0 2.9751.194 3.7891.3434 .8283.1521 2.5451.6188 2.4877.6763-.029.029-1.4319.2074-3.1177.3965l-3.0652.3437-.4376-.8808z" fill="#999" stroke-width=".08593"/>
   <path transform="translate(6.404 -900.16)" d="m1701.3893,1582.1003c.089-.075 6.3001-2.1606 7.6861-2.5815 3.5434-1.0759 7.0765-1.8273 11.7445-2.4977 1.167-.1677 2.1686-.3048 2.2257-.3048s-.058.1088-.2562.2419c-.6888.4625-1.7282,1.6069-1.7282,1.9026 0,.052-.091.1287-.2023.171-.3849.1463-3.8928.6865-7.0162,1.0804-3.5876.4524-6.873.9683-10.1115,1.5878-2.2348.4276-2.4104.4576-2.3419.4003z" fill="#999" stroke-width=".08593"/>
   <path transform="translate(6.404 -900.16)" d="m1701.1285,1585.3995-.2108-.1597 .3397-.087c2.1523-.5534 8.3952-1.6003 13.1439-2.2041 1.7015-.2163 3.5577-.4656 4.1248-.5539s1.0406-.152 1.0521-.1415c.061.056-.3953,1.2078-.4996,1.2623-.068.035-4.0092.4934-8.7592,1.0182s-8.7138.9702-8.8083.9898c-.095.02-.2667-.036-.3826-.1238z" fill="#999" stroke-width=".08593"/>
   <path transform="translate(6.404 -900.16)" d="m1669.6293,1584.9644c-5.968-.2421-11.2332-1.1864-15.6375-2.8045-2.435-.8946-5.4543-2.5233-7.51-4.0513-1.0582-.7865-2.7769-2.1792-2.7378-2.2184 .02-.02.709.3047 1.5314.7212 6.0944,3.0864 13.0597,5.0016 20.8736,5.7394 .8894.084 2.7951.1511 5.1131.18 3.4963.043 5.5113-.024 8.2067-.2769 .4472-.042.3258.03-2.2472,1.3299l-2.7198,1.3742-1.5339.04c-.8437.022-2.346.01-3.3386-.033z" fill="#999" stroke-width=".08593"/>
   <path transform="translate(6.404 -900.16)" d="m1658.4148,1591.5327c-1.6088-.1057-3.4991-.4252-4.5975-.777-.7-.2242-2.1759-.8808-3.0416-1.3532-.9571-.5222-2.2134-1.326-4.9868-3.1904l-2.0452-1.375-.096-.5099c-.053-.2805-.087-.5184-.076-.5287s.5614.2731 1.2231.6297c1.6063.8656 5.3222,2.641 6.6718,3.1877 5.0108,2.0297 8.9233,2.7747 13.5519,2.5802 3.7365-.1569 6.2074-.7709 10.455-2.598 .3666-.1577.6696-.2224 1.0484-.2239 1.3554-.01 5.387-.4405 8.0022-.8642 .8658-.1402 1.6199-.2526 1.6757-.2497 .2613.014-9.1489,2.6595-12.0246,3.381-3.4426.8638-5.9527,1.2671-10.7177,1.7219-1.3817.1319-4.1821.226-5.0421.1695z" fill="#999" stroke-width=".08593"/>
   <path transform="translate(6.404 -900.16)" d="m1613.4183,1620.4291c-1.2761-1.045-4.6915-3.8467-7.5898-6.226s-5.3248-4.3473-5.3924-4.3732c-.1045-.04-.1228-.7938-.1228-5.0651v-5.018h1.5253c.839,0 4.3096-.037 7.7127-.078s6.1995-.062 6.2144-.048-.093.2655-.2409.5575l-.2679.5308 .9772,1.0462c3.0744,3.2914 3.754,4.0574 5.1594,5.8155l1.62,2.0162c.045.05.3044-.1455.6628-.5012l.5884-.5838 .6675.7805 .6675.7804h1.775c1.5372,0 4.0187-.1733 5.5293-.3862 .2767-.039.3223-.022.3223.1203 0,.091.048.1852.1074.209s-.1246.048-.4082.053c-1.2252.023-16.8107.6735-16.8347.7023-.015.018-.095,2.6228-.1784,5.7895s-.1568,5.7631-.1628,5.7698-1.0551-.8428-2.3313-1.8877z" fill="#999" stroke-width=".08593"/>
   <path transform="translate(6.404 -900.16)" d="m1644.9349,1639.8207c-1.1814-.3503-2.923-1.0779-4.6431-1.9398-2.4559-1.2306-3.0443-1.6174-5.4597-3.5898l-2.7072-2.2105-3.508-4.9665-3.508-4.9665 .3066-.7911c1.3111-3.3838 1.5879-4.171 1.4981-4.2608-.056-.056-2.0817,1.3824-4.5008,3.1972s-4.4964,3.3374-4.6163,3.3834-.387-.055-.5934-.2246l-.3753-.3083 .184-5.5811c.1012-3.0696.2556-5.6253.3432-5.6795 .173-.1069 16.148-.7546 16.2186-.6575l2.6802,3.1528 2.8707,3.3698c.1976.2339.1801.6091-.1147,2.4463-.1915,1.1936-.3481,2.2076-.3481,2.2535s.8285.6674 1.8412,1.3813l1.8412,1.2979 1.3823,2.4413 1.3823,2.4413 3.4346.4895c1.889.2692 3.4598.5147 3.4906.5454 .088.089-.3101,4.7641-.4214,4.9443-.055.089-.3564.1136-.6698.055-1.0128-.19-2.1327.2235-3.0268,1.1176-.8673.8673-1.1247,1.5886-.9503,2.6632 .053.3256.043.5841-.022.5744s-.9689-.2698-2.0087-.578z" fill="#999" stroke-width=".17187"/>
   <path transform="translate(6.404 -900.16)" d="m1634.2427,1664.4619c-2.2784-.1643-3.0657-.3598-3.6951-.9178l-.4659-.413 .6805-1.5688c.7914-1.8248 1.2177-3.3591 1.6555-5.9584 .2623-1.5578.3125-2.7947.3022-7.4535l-.012-5.5858-1.5868-3.1359c-2.0436-4.0391-2.8405-5.2086-5.3451-7.845-1.1313-1.1909-2.1716-2.3868-2.3116-2.6576-.2386-.4614-.2125-.6136.4148-2.4256 .6472-1.8696.7975-2.2058.9181-2.0537l2.0056,2.8215c2.7146,3.8306 3.3241,4.6091 4.8958,6.2531 3.1278,3.2717 7.9351,6.1676 12.8513,7.7417 2.1736.696 3.4987.9241 4.906.8446 1.3652-.077 2.2248-.5522 3.1793-1.7568l.5495-.6936 .1081-3.1009c.059-1.7054.1661-3.9129.2372-4.9055l.1291-1.8046-2.1277-.3814c-1.1703-.2098-2.8434-.4751-3.7181-.5896-1.8016-.2358-1.6393-.1-2.9103-2.4461-.4035-.745-.6977-1.4129-.6536-1.4842s.603-.4826 1.2422-.9142l1.1621-.7846 6.4732.1037 6.4733.1038 .4875.962 .4874.962-.041,4.3827c-.044,4.6808-.4922,17.7726-.7139,20.8453-.074,1.0195-.2245,1.9444-.3354,2.0553-.1343.1343-1.5053.2436-4.1101.3276-2.1497.069-5.0723.2175-6.4946.3292-2.9689.2333-2.773.2866-5.5583-1.5102l-1.4606-.9423-.4814.5761c-.6769.8102-2.2708,3.956-2.7939,5.5143-.5882,1.7524-.5741,2.3198.1741,6.9637l.1177.7305-1.354-.025c-.7446-.014-2.221-.087-3.2808-.1634z" fill="#f55" stroke-width=".17187"/>
   <path transform="translate(6.404 -900.16)" d="m1644.4193,1639.4146c-2.4081-.8361-5.8175-2.5415-7.4763-3.7395-.709-.5121-2.0632-1.5737-3.0095-2.3591-1.6451-1.3655-1.8711-1.6417-5.1561-6.3032-1.8896-2.6814-3.4214-4.9196-3.404-4.9738s.4364-1.2008.931-2.5478 .8494-2.4991.7883-2.5602c-.1494-.1493-.9135.3686-5.405,3.6635-2.1043,1.5437-3.9317,2.8067-4.0609,2.8067-.6244,0-.6551-.3546-.4558-5.2768 .1063-2.6276.2373-5.0593.2911-5.4036l.098-.6261 1.227-.1016c1.0961-.091 4.3606-.2344 12.1486-.5346l2.5-.096 2.785,3.2641c3.1571,3.7002 2.99,3.2919 2.5238,6.166-.1428.881-.2172,1.6708-.1651,1.755s.8977.7384 1.8793,1.4537l1.7846,1.3006 1.346,2.4079c.915,1.637 1.456,2.431 1.6896,2.4798 .1891.04 1.7359.278 3.4374.53s3.1106.4721 3.1313.4891c.046.038-.2927,4.2405-.3611,4.4815-.027.094-.4678.1783-.9798.1861-2.0152.031-3.7669,1.7001-3.7669,3.5895 0,.3715-.083.6067-.2148.6063-.1182-.0004-1.0656-.2962-2.1054-.6572z" fill="#f55" stroke-width=".17187"/>
   <path transform="translate(6.404 -900.16)" d="m1647.9238,1667.1386c-1.8123-2.1742-2.3432-2.6614-3.2126-2.9484-.7861-.2594-2.2202-.1484-2.9801.2307-.3196.1594-.7447.2899-.9446.2899-.3361,0-.3639-.094-.3689-1.2461 0-.6853-.07-2.0195-.1479-2.9647-.1137-1.3714-.087-1.9347.1325-2.7873 .3734-1.451 1.6953-4.0016 2.0739-4.0016 .065,0 .5592.2785 1.0982.6188 1.9172,1.2105 3.2198,2.6896 7.335,8.3293l2.6733,3.6635-.7859.2983c-.8531.3238-1.7037.9032-2.6756,1.8225l-.6205.5868-1.5768-1.8917z" fill="#f55" stroke-width=".17187"/>
   <path transform="translate(6.404 -900.16)" d="m1621.5482,1605.7448c-.767-.9905-2.168-2.56-3.1135-3.4878l-1.719-1.6869 .5395-1.063c1.7847-3.5163 2.9938-5.0014 5.5501-6.8168 2.0854-1.481 3.2532-2.0347 5.579-2.6453l2.9415-.7722 2.6765,1.1235c2.6329,1.1052 2.7096,1.1727 4.7067,4.1428 1.1165,1.6606 2.0301,3.0928 2.0301,3.1827s-.5027.082-1.1172-.017-2.5622-.018-4.3285.1797c-2.8407.3182-3.5376.5428-6.0359,1.9451-2.8877,1.6209-3.6046,2.4451-5.7423,6.6024l-.5726,1.1134-1.3944-1.8009z" fill="#e6e6e6" stroke-width=".34374"/>
   <path transform="translate(6.404 -900.16)" d="m1637.7741,1610.4323-1.6248-2.277-1.9159.1998c-7.2544.7564-7.5397.7475-8.6012-.2695l-.985-.9437 1.4092-2.3425c1.2538-2.0843 1.6955-2.503 4.007-3.7989 2.2099-1.239 3.0499-1.5073 5.6251-1.7972 2.6044-.2931 3.3176-.2527 5.106.2887 1.1433.3462 2.1609.8437 2.2614,1.1055 .3555.9263-1.422,3.9401-3.2592,5.5263-.9941.8582-1.8075,1.7674-1.8075,2.0203s.4663,1.3835 1.0362,2.5125 .887,2.0526.7048,2.0526-1.0625-1.0246-1.9561-2.2769z" fill="#e6e6e6" stroke-width=".34374"/>
   <path transform="translate(6.404 -900.16)" d="m1653.7017,1577.1786c-1.2836-.4374-2.4843-.9458-2.6682-1.1297s-.5723-1.5622-.8631-3.0629c-.5312-2.7416-.4135-6.4318.2306-7.2311 .1674-.2077 1.697-.9741 3.3991-1.7032s3.0923-1.4098 3.0894-1.5128-.1388-.3982-.302-.6558c-.2373-.3746-1.0201-.1455-3.9102,1.1446-3.9882,1.7801-3.7691,1.4927-4.2017,5.5111-.1442,1.3401-.042,2.9037.2927,4.4647 .2831,1.3213.4872,2.42.4536,2.4417s-.7156-.2519-1.5154-.6078c-1.3028-.5797-1.5107-.8414-1.9966-2.5126-.4632-1.5934-.4815-2.2627-.1255-4.5881l.4168-2.7226 2.8625-1.6751c1.5744-.9212 2.863-1.7523 2.8635-1.8469s-.1363-.3887-.3041-.6537c-.2457-.3881-.8301-.1713-3.0025,1.1143-1.4835.878-2.8936,1.7245-3.1334,1.8812-.6058.3957-1.5461,6.0671-1.2734,7.6808 .258,1.5273.1265,1.5866-1.2863.5807-1.0295-.7331-1.0379-.7651-.883-3.3515 .147-2.4545.2642-2.7764 1.9527-5.3612 1.5995-2.4486 2.1225-2.9532 4.7725-4.6051l2.9762-1.8551 6.3697-.4521c3.5033-.2487 6.6403-.458 6.9711-.4651 1.1792-.025.5646.9895-1.9765,3.2638-1.4179,1.269-2.578,2.4286-2.578,2.5769s1.8175.9851 4.0389,1.8595c3.4031,1.3394 5.0094,1.7397 10.2033,2.5425l6.1643.9527 .933,1.1847c.8954,1.1369.9208,1.28.6318,3.5548-.1657,1.3037-.3483,2.4173-.4058,2.4749-.1808.1808-11.3335,1.2792-13.3158,1.3114l-1.8905.031-.9658-2.9218-.9658-2.9218 1.0306-2.1121c1.0184-2.0869 1.0465-2.5283.1611-2.5283-.519,0-2.5355,3.7949-2.5062,4.7166 .011.3362.4437,1.8874.9623,3.4472s.8956,2.8358.8377,2.8358c-1.0516,0-7.2294,1.1476-7.4693,1.3875-.5075.5075-1.5237.3873-4.0743-.4818z" fill="#999" stroke-width=".34374"/>
   <path transform="translate(6.404 -900.16)" d="m1585.3941,1618.2016-2.1688-5.1901 1.9095-1.9558c1.7422-1.7843 1.9635-2.1896 2.5246-4.6234 .5682-2.4642.7325-2.7591 2.1546-3.8671 1.2598-.9814 1.8331-1.1994 3.1547-1.1994h1.6152l.2102,3.1796c.1155,1.7488.3133,6.7071.4395,11.0184l.2295,7.8388-.994-.2765c-1.2527-.3486-3.2862-.3498-5.3251,0l-1.5811.2688-2.1688-5.1901z" fill="#b3b3b3" stroke-width=".34374"/>
   <path transform="translate(6.404 -900.16)" d="m1606.4146,1629.4893c-.9223-1.6649-1.5797-2.3361-3.5137-3.5872l-2.3792-1.5391v-6.3596c0-5.1587.085-6.3077.451-6.0847 .615.3748 15.361,12.5018 15.361,12.6328 0,.057-1.8176,1.4575-4.039,3.1113s-4.1979,3.2021-4.3922,3.4407c-.2645.3248-.6385-.081-1.4879-1.6142z" fill="#b3b3b3" stroke-width=".34374"/>
   <path transform="translate(6.404 -900.16)" d="m1623.3996,1656.5041c-5.5153-5.7783-5.0197-5.4791-7.8852-4.7599-.817.205-.8994.1333-.8994-.7828 0-.879.3249-1.2143 2.5302-2.6113l2.5302-1.6028 .4211-2.668c.5985-3.7923 2.0665-11.8296 2.2997-12.5908 .166-.5418.5438-.3007 2.4238,1.5468 1.7854,1.7546 2.6206,2.9729 4.2109,6.1418 1.9608,3.9074 1.9863,3.9964 2.2069,7.7242 .2864,4.8412-.4917,10.9181-1.7045,13.3115-.4602.9081-.8775,1.651-.9273,1.651s-2.3928-2.4119-5.2064-5.3597z" fill="#b3b3b3" stroke-width=".34374"/>
   <path transform="translate(6.404 -900.16)" d="m1580.463,1625.3797-2.0077-2.7051 .2235-2.1469c.2969-2.8514.5367-4.0374.8162-4.0371 .2142.0002 5.2147,9.3077 5.2147,9.7062 0,.099-.5037.5646-1.1194,1.0342l-1.1195.8538-2.0078-2.7051z" fill="#b3b3b3" stroke-width=".34374"/>
   <path transform="translate(6.404 -900.16)" d="m1634.7483,1712.4333c-.1033-.1671.2884-.5011.8704-.7422s1.9654-1.0247 3.0744-1.7414c2.6719-1.727 4.2236-4.0849 5.1834-7.8763 .6447-2.5472.7112-3.498.528-7.5544-.229-5.0691-1.3507-11.0118-2.6658-14.123-.4327-1.0235-1.3964-2.8381-2.1417-4.0325-1.009-1.617-1.2557-2.271-.9658-2.5608 .214-.2141.3892-.5347.3892-.7124s-1.4984-1.8483-3.3299-3.7124l-3.3298-3.3892h1.6971c.9334,0 2.737.1007 4.008.2207l2.311.2183 3.5636,5.7088c5.4195,8.6817 5.8905,9.6219 7.1649,14.3022 1.2786,4.696 1.1679,13.2454-.2325,17.9613-1.0372,3.4926-4.8393,6.5837-9.6044,7.8082-2.231.5734-6.2192.7095-6.5201.2227z" fill="#4d4d4d" stroke-width=".34374"/>
   <path transform="translate(6.404 -900.16)" d="m1628.9206,1711.3403c-2.6891-.665-5.2803-2.3582-6.4778-4.2327-.6187-.9685-1.7583-2.5413-2.5324-3.4951l-1.4076-1.7342-.2339-3.9375c-.1287-2.1656-.3275-5.0976-.4417-6.5155l-.2077-2.578 .9915.9289 .9916.9289 5.1285-1.6329 5.1284-1.633 1.8253-4.0394c1.9424-4.2988 5.0119-8.4312 5.7855-7.7891 .2097.1739 1.0962,1.6765 1.97,3.3391 1.2304,2.3408 1.7842,3.9533 2.4546,7.1476 1.4005,6.6729 1.6932,10.6548 1.0301,14.015-1.0695,5.4194-2.8144,7.7538-7.5455,10.0945-2.6831,1.3275-4.4327,1.6345-6.4589,1.1334zm5.5764-10.8406c1.788-1.2523 1.6301-3.7976-.3383-5.4539-1.3451-1.1318-3.023-1.1516-4.3028-.051-.7955.6843-.9436,1.068-.8953,2.3202 .1092,2.8297 3.3673,4.7037 5.5364,3.1844z" fill="#4d4d4d" stroke-width=".34374"/>
   <path transform="translate(6.404 -900.16)" d="m1715.1585,1688.782c-4.1143-1.4368-5.2127-2.3392-5.527-4.5408-.1241-.8697-.4977-2.0453-.8302-2.6124-.4599-.7847-.6534-2.1408-.809-5.6717-.1124-2.5523-.5065-6.6874-.8757-9.1893-.7141-4.8396-.6364-5.8069.6729-8.38 .8097-1.5914 2.5557-2.4268 5.4664-2.6156 2.9327-.1903 5.0148.7848 6.0041,2.8118 .648,1.3278.6499,1.4893.077,6.7029-.9667,8.7935-.6862,11.9944 1.1895,13.5726 .5652.4756 2.8885,1.43 5.4372,2.2336 4.7397,1.4942 5.5227,1.9684 5.5227,3.3441 0,1.2602-1.0248,3.2245-1.8591,3.5633-.6686.2716-10.4782,2.0931-10.8592,2.0165-.095-.019-1.7187-.5748-3.6093-1.235z" fill="#4d4d4d" stroke-width=".34374"/>
   <path transform="translate(6.404 -900.16)" d="m1742.9389,1682.7789c-.019-1.9129-.3873-4.4151-1.106-7.5093-2.0222-8.7058-3.0752-11.1353-7.1441-16.4817-1.4779-1.9419-2.9702-4.0545-3.3163-4.6946-1.2235-2.2632.2046-4.7618 3.4063-5.9597 2.1967-.8219 4.5985-.9119 5.9194-.2219 2.0779,1.0856 4.6733,4.8311 7.8365,11.3092 3.4775,7.1217 4.4949,11.2565 4.8462,19.6957l.2018,4.85-3.9157.7238c-2.1537.3981-4.5422.8213-5.3079.9405l-1.3921.2167-.028-2.8687z" fill="#4d4d4d" stroke-width=".34374"/>
   <path transform="translate(6.404 -900.16)" d="m1761.7315,1675.6993c0-7.3207-.5103-14.1317-1.1669-15.6968-.2447-.5833-1.3114-2.3316-2.3705-3.8852-1.7355-2.5459-2.99-5.4683-2.99-6.9654 0-.9922 1.798-3.3618 3.1107-4.0996 1.646-.9251 4.7541-.9593 6.6858-.074 1.2157.5574 1.5999,1.0642 3.3172,4.3752 3.8516,7.4261 4.9185,11.913 5.4629,22.9756 .2026,4.1162.2991,7.5532.2145,7.6378-.1635.1636-11.1031,2.1766-11.8304,2.177-.3284.0001-.4306-1.5198-.4333-6.4449z" fill="#4d4d4d" stroke-width=".34374"/>
   <path transform="translate(6.404 -900.16)" d="m1781.3099,1677.7997c-1.1141-2.9303-.9117-9.6533.4186-13.9064 1.0336-3.3043 1.0104-6.8582-.064-9.7636-.6333-1.713-1.2517-2.5284-3.6491-4.8124-3.2434-3.0898-3.5326-3.8982-1.9294-5.3935 1.5069-1.4054 2.2789-1.6534 5.1335-1.6486 3.3571.01 5.7465,1.073 8.069,3.6048 3.4382,3.748 4.0582,6.497 3.273,14.5109-.4533,4.6262-.6939,5.8501-1.4395,7.3214-.5962,1.1767-.8601,2.1856-.7901,3.0214 .095,1.1398.2457,1.3066 1.6368,1.8187 1.7879.658 1.9276.9169 1.3835,2.5653-.5003,1.516-.8726,1.6753-6.0088,2.5719-2.2687.396-4.4706.8031-4.8931.9047-.6094.1465-.8452-.018-1.1406-.7946z" fill="#4d4d4d" stroke-width=".34374"/>
   <path transform="translate(6.404 -900.16)" d="m1794.7913,1674.8112c.43-2.0163 0-2.8317-1.7816-3.365-1.6448-.4928-1.7216-1.004-.5101-3.3949 .7224-1.4255.9517-2.6831 1.4397-7.8946 .5165-5.5145.6486-6.1989 1.1967-6.1989 .3533,0 .6973.3299.8066.7734 .1047.4254.6389,2.6801 1.1871,5.0105l.9966,4.2371-.6725,5.8821c-.3698,3.2352-.719,5.9287-.7759,5.9856s-.5796.1987-1.1616.3151l-1.0581.2116 .3331-1.562z" fill="#999" stroke-width=".34374"/>
   <path transform="translate(6.404 -900.16)" d="m1708.7993,1569.1834c-2.3632-.2619-7.8973-.867-12.2981-1.3448l-8.0015-.8686-7.2475-2.5732c-6.6038-2.3445-7.5655-2.7914-10.8263-5.0313-3.7544-2.5789-3.7681-2.5984-4.0078-5.6828l-.1394-1.7939 1.925.1716c8.539.7615 19.9882,1.181 32.0508,1.1742 11.8661-.01 15.8853-.1528 27.786-1.0108 7.6523-.5516 13.9819-.9342 14.066-.8502 .1415.1416-.5764,6.3159-1.4006,12.0453l-.3514,2.4423-2.2858,1.0809c-1.8465.8732-3.0127,1.1495-6.067,1.4375-2.0796.1961-4.7092.4969-5.8436.6685-3.7405.5658-12.8337.6367-17.3588.1353z" fill="#4d4d4d" stroke-width=".34374"/>
   <path transform="translate(6.404 -900.16)" d="m1673.5894,1564.7453c-4.2874-.7136-10.2307-2.5275-10.6839-3.2609-.1477-.2389 3.0203-3.0859 3.4339-3.0859 .1166,0 1.7652,1.0746 3.6634,2.3881 2.1309,1.4744 4.3276,2.679 5.7416,3.1484 1.2597.4181 2.7544.9616 3.3216,1.2077 .9839.4269.9918.4463.1718.4235-.4726-.013-3.0144-.3825-5.6484-.8209z" fill="#4d4d4d" stroke-width=".34374"/>
   <path transform="translate(6.404 -900.16)" d="m1589.9091,1666.2802c-1.6191-.4652-4.1338-3.1758-5.4482-5.8725-1.947-3.9947-2.6589-7.3687-2.6664-12.6372-.01-5.7237.7528-8.6489 2.8705-11.0353 1.2433-1.401 1.4649-1.5111 3.0399-1.5111 2.0819,0 3.6543,1.0748 5.4378,3.7168 5.2849,7.8292 5.5529,22.2312.4929,26.4889-.59.4964-1.2028.9026-1.3619.9026s-.4953.063-.747.1405-.9797-.01-1.6176-.1927z" fill="#4d4d4d" stroke-width=".34374"/>
   <path transform="translate(6.404 -900.16)" d="m1591.5034,1672.5319c-4.99-1.5594-9.622-9.2911-11.6423-19.4334-.2972-1.4918-.4751-4.5616-.4682-8.0779 .01-4.8116.1273-6.0782.777-8.3525 2.3077-8.078 6.3449-11.2015 11.1194-8.6029 4.5076,2.4533 8.5861,10.2574 10.1037,19.3329 .7134,4.2668.5422,12.7751-.3187,15.8407-1.9055,6.7846-5.7264,10.4946-9.5709,9.2931zm1.3477-5.1901c6.0532-2.2871 7.499-16.5996 2.6889-26.6179-2.3-4.7904-4.9747-6.9031-8.3815-6.6205-1.7297.1434-2.0246.2953-3.2925,1.6957-.8699.9608-1.7147,2.4317-2.2509,3.9189-.7804,2.1645-.8584,2.8806-.8584,7.8807 0,4.6559.1201,5.9391.7829,8.363 2.255,8.2473 6.9913,13.0123 11.3115,11.3801z" fill="#999" stroke-width=".34374"/>
   <path transform="translate(6.404 -900.16)" d="m1603.7145,1706.9791c-1.1956-2.083-1.645-2.5168-4.4013-4.2491l-3.0697-1.9293-1.4715-8.211-1.4715-8.211 .5204-4.1249c.8217-6.5141.716-6.17 2.042-6.6494 1.7226-.6229 4.3273-3.6589 5.4143-6.3108 1.6098-3.9275 2.1715-7.4143 2.1206-13.1639-.034-3.8263-.2391-6.0847-.7957-8.7566-2.3029-11.0559-8.1724-19.47-13.7368-19.6919-1.8986-.076-1.2403-.784 1.1994-1.2905 1.421-.295 2.3146-.2865 3.7547.036l1.8899.4229v1.8359c0,1.0097.1059,1.8359.2353,1.8359 .8746,0 4.4796-1.2203 4.811-1.6286 .7247-.8928 3.2448,1.21 4.9307,4.1142l1.4504,2.4986-.9455,3.9088c-.8588,3.5503-.9236,4.2598-.7066,7.7342 .1314,2.1038.4993,5.1818.8176,6.8399l.5786,3.0148 1.3111-.8937 1.311-.8938-.233,5.0975c-.2641,5.777.096,4.9124-4.8017,11.5171l-2.2116,2.9822 6.941,7.2541c5.0179,5.2442 6.9705,7.5132 7.0473,8.1893 .1442,1.2678 1.3867,19.8257 1.3324,19.8994-.024.032-2.2855.2278-5.0261.4347s-5.5504.4509-6.244.5425c-1.2458.1645-1.2775.1382-2.5927-2.1533z" fill="#ccc" stroke-width=".34374"/>
   <path transform="translate(6.404 -900.16)" d="m1612.076,1680.9855c-4.2752-4.4186-7.7732-8.147-7.7732-8.2854s1.3921-2.1532 3.0937-4.4771l3.0936-4.2254v-3.2532c0-1.7893.096-3.9504.2124-4.8025l.2123-1.5494 3.3534-.8992 3.3534-.8992 3.5668,3.6835c1.9618,2.0259 5.188,5.3877 7.1695,7.4707s4.7995,5.0247 6.2625,6.5371l2.6598,2.7499-2.4814,2.753c-2.0491,2.2735-2.7806,3.4283-4.2,6.6308l-1.7187,3.8778-4.2546,1.3611c-2.34.7486-4.3719,1.3612-4.5154,1.3612s-3.7588-3.6152-8.0341-8.0337z" fill="#ccc" stroke-width=".34374"/>
   <path transform="translate(6.404 -900.16)" d="m1607.4327,1650.6184c-.224-1.0937-.4855-3.7674-.5812-5.9415-.1612-3.6662-.092-4.2697.959-8.3165l1.1328-4.3635 7.5584-5.666c4.1572-3.1163 7.5986-5.6259 7.6477-5.5768s-.4543,1.4687-1.1185,3.1547c-1.1235,2.852-2.1157,7.383-4.0969,18.7097l-.572,3.2695-5.0272,3.2615c-2.765,1.7938-5.1324,3.3056-5.261,3.3595s-.4171-.7969-.6411-1.8906z" fill="#ccc" stroke-width=".34374"/>
   <path transform="translate(6.404 -900.16)" d="m1596.9488,1625.3428c-.098-.8042-.433-9.145-.7447-18.5352-.5461-16.4555-.544-17.1114.059-18.1322 .4953-.8385.8591-1.0591 1.7462-1.0591h1.1205l.094,19.1634c.052,10.5399.017,19.2595-.078,19.3768-.094.1174-.5877.3113-1.0959.4309-.8745.2058-.9336.1391-1.102-1.2446z" fill="#ccc" stroke-width=".34374"/>
   <path transform="translate(6.404 -900.16)" d="m1584.8 1623.1c-0.5623-1.1104-3.4783-6.7367-6.4801-12.503-4.9083-9.4286-6.6252-13.195-6.2057-13.615 0.078-0.078 0.4217 0.4784 0.7635 1.2366 0.5599 1.2414 0.7457 1.3784 1.8694 1.3784h1.2477l5.2809 12.394c3.7453 8.7897 5.1741 12.5 4.9137 12.761s-0.6644-0.2199-1.3894-1.6517z" fill="#ccc" stroke-width=".34374"/>
   <path transform="translate(6.404 -900.16)" d="m1572.8507,1646.165-3.0936-.5024-3.1389-3.1095-3.1389-3.1096 .794-2.0262c.4368-1.1144.9811-3.1852 1.2096-4.6018s.474-2.5756.5455-2.5756 1.9451.9018 4.1636,2.0041 5.0669,2.4356 6.3297,2.963c2.2281.9306 2.2858.9857 1.9498,1.863-.1904.4972-.4349,2.8762-.5433,5.2866l-.1971,4.3827-.8933-.036c-.4914-.02-2.2856-.262-3.9871-.5384z" fill="#ccc" stroke-width=".34374"/>
   <path transform="translate(6.404 -900.16)" d="m1581.0794,1692.6352-2.6211-3.2587-.1688-2.8426c-.1068-1.7983-.5367-3.9793-1.1702-5.9363l-1.0013-3.0937 2.6895-6.8361 2.6896-6.8361 1.1322,2.0238c1.1955,2.1367 3.0535,4.5843 4.4866,5.9102 1.1913,1.1022 4.1,2.4653 5.2693,2.4693 .8777,0 .9539.096.7812.9487-.1053.5199-.4274,2.7985-.7158,5.0637-.4987,3.9166-.4903,4.3123.1721,8.0778 .3831,2.1777.7693,4.292.8583,4.6984 .1281.5855-.1831.9602-1.499,1.8046-1.5631,1.0031-1.8554,1.0657-4.9712,1.0657h-3.3104l-2.621-3.2587z" fill="#ccc" stroke-width=".34374"/>
   <path transform="translate(6.404 -900.16)" d="m1609.746,1653.1664c0-.1812.2602-.3801 1.8047-1.3799l1.8046-1.1682v.9188 .9188l-1.6542.4239-1.8047.4611c-.1126.028-.1504-.016-.1504-.1745z" fill="#ccc" stroke-width=".08593"/>
  </g>
  <path d="m391.61 321.55c-2.6852-0.1272-4.8765-0.73227-5.8932-1.6273-0.57071-0.50235-0.80316-0.96507-0.8003-1.593 3e-3 -0.76047 0.19297-1.2562 1.3533-3.5403 0.57219-1.1263 1.1122-2.2517 1.2001-2.5009s0.39126-1.3742 0.67421-2.5 0.53325-2.0658 0.55622-2.0888c0.0475-0.0475 13.342-3.8912 13.459-3.8912 0.19634 0-0.55992 5.195-1.3564 9.3178-0.47389 2.4529-1.6692 7.9121-1.7501 7.993-0.12265 0.12265-3.3395 0.41148-5.103 0.45818-0.62119 0.0164-1.674 4e-3 -2.3395-0.0274z" fill="#4d4d4d" stroke="#494949" stroke-linecap="round" stroke-linejoin="round" stroke-width=".00807"/>
  <path d="m415.84968,309.73215c-1.63855-.30585-2.20415-.49551-3.04234-1.02015-.61828-.38699-.94553-.81968-1.17497-1.55355-.14769-.47237-.17515-.74281-.16789-1.65381 .01-1.21257.37761-4.43415.51623-4.51982 .063-.039 14.55737-4.24256 15.49425-4.4936 .10882-.0292.16273.17381.34074,1.28261 .39562,2.4644.47804,3.27934.43105,4.26184-.0737,1.54088-.41322,2.45689-1.26722,3.41896-1.75565,1.97779-4.39622,3.4127-7.44979,4.0483-.72376.15064-1.30208.21169-2.22794.23516-.68774.0174-1.3412.0148-1.45212-.006v-1e-005z" fill="#4d4d4d" stroke="#494949" stroke-linecap="round" stroke-linejoin="round" stroke-width=".00807"/>
  <path d="m364.66 316.9c-0.56994-0.0775-1.1937-0.31362-2.1607-0.81785-0.78224-0.40789-0.99654-0.55217-0.88741-0.59745 0.21966-0.0911 10.524-3.047 10.622-3.047 0.13884 0-0.97843 1.0928-1.7653 1.7267-2.2075 1.7783-4.5916 2.9011-5.8085 2.7355z" fill="#4d4d4d" stroke="#494949" stroke-linecap="round" stroke-linejoin="round" stroke-width=".00807"/>
  <path d="m438.7 295.79c-0.1604-0.0573-0.4022-0.18295-0.53734-0.27917-0.47497-0.33821-1.3899-1.5826-1.2552-1.7073 0.10024-0.0929 11.654-3.4054 11.703-3.3555 0.11098 0.11098-1.572 1.7917-2.6409 2.6373-1.7987 1.423-4.0668 2.4824-5.8436 2.7295-0.78894 0.10973-1.0633 0.10497-1.4264-0.0248z" fill="#4d4d4d" stroke="#494949" stroke-linecap="round" stroke-linejoin="round" stroke-width=".00807"/>
 </g>
</svg>
